<svg width="329" height="307" viewBox="0 0 329 307" fill="none" xmlns="http://www.w3.org/2000/svg">
<path d="M84.5615 202.446L131.896 56.7344H167.46L100.425 243H69.082L2.30273 56.7344H37.7393L84.5615 202.446ZM285.923 195.026C285.923 186.839 283.023 180.528 277.224 176.093C271.509 171.658 261.147 167.18 246.137 162.66C231.126 158.14 219.186 153.108 210.316 147.564C193.344 136.904 184.858 123.002 184.858 105.859C184.858 90.849 190.956 78.4824 203.152 68.7598C215.434 59.0371 231.34 54.1758 250.87 54.1758C263.834 54.1758 275.39 56.5638 285.539 61.3398C295.688 66.1159 303.662 72.9388 309.462 81.8086C315.261 90.5931 318.161 100.358 318.161 111.104H285.923C285.923 101.382 282.853 93.7913 276.712 88.333C270.657 82.7894 261.957 80.0176 250.614 80.0176C240.039 80.0176 231.809 82.2777 225.924 86.7979C220.124 91.318 217.225 97.6292 217.225 105.731C217.225 112.554 220.38 118.269 226.691 122.874C233.003 127.394 243.408 131.829 257.906 136.179C272.405 140.443 284.047 145.347 292.831 150.891C301.616 156.349 308.055 162.66 312.148 169.824C316.242 176.903 318.289 185.218 318.289 194.771C318.289 210.293 312.319 222.659 300.379 231.87C288.524 240.996 272.405 245.559 252.021 245.559C238.546 245.559 226.137 243.085 214.794 238.139C203.536 233.107 194.752 226.199 188.44 217.414C182.215 208.63 179.102 198.395 179.102 186.711H211.468C211.468 197.286 214.965 205.474 221.958 211.273C228.951 217.073 238.973 219.973 252.021 219.973C263.279 219.973 271.723 217.713 277.352 213.192C283.066 208.587 285.923 202.532 285.923 195.026Z" fill="#F56C5D"/>
<path d="M1.5 277.5H329" stroke="#3660E6" stroke-width="20"/>
</svg>
